<svg width="100" height="100" viewBox="0 0 100 100" fill="none" xmlns="http://www.w3.org/2000/svg">
<rect x="0.5" y="0.5" width="99" height="99" rx="24.5" fill="white" stroke="#F0F1F5"/>
<path d="M62.2405 72.5689V74.1164C62.2405 74.2491 62.1522 74.3375 62.0197 74.3375C61.8872 74.3375 61.7989 74.2491 61.7989 74.1164V71.552L59.8559 69.6065V74.5586C61.1807 74.647 62.2405 75.7966 62.2405 77.1231V78.0516C63.3445 77.9632 64.1835 77.0346 64.1835 75.9293V74.7354C64.1835 73.5859 63.3003 72.6573 62.2405 72.5689ZM55.0867 79.6875V81.2351C55.0867 81.3677 54.9984 81.4562 54.8659 81.4562C54.7334 81.4562 54.6451 81.3677 54.6451 81.2351V64.4333L52.7021 62.4878V81.5888C54.0269 81.6772 55.0867 82.8268 55.0867 84.1533V85.1702C56.1907 85.0818 57.0297 84.1533 57.0297 83.0037V81.8099C57.0739 80.7045 56.1907 79.776 55.0867 79.6875ZM57.4713 77.2999V78.8475C57.4713 78.9801 57.383 79.0685 57.2505 79.0685C57.118 79.0685 57.0297 78.9801 57.0297 78.8475V66.7767L55.0867 64.8312V79.2454C56.4115 79.3338 57.4713 80.4834 57.4713 81.8099V82.7826C58.5753 82.6942 59.4143 81.7657 59.4143 80.6603V79.4665C59.4143 78.3169 58.5753 77.4326 57.4713 77.2999ZM59.8559 75.0007V76.5483C59.8559 76.6809 59.7676 76.7693 59.6351 76.7693C59.5026 76.7693 59.4143 76.6809 59.4143 76.5483V69.1643L57.4713 67.2189V76.902C58.7961 76.9904 59.8559 78.14 59.8559 79.4665V80.4834C60.9599 80.395 61.7989 79.4665 61.7989 78.3611V77.1673C61.7989 76.0177 60.9599 75.0892 59.8559 75.0007ZM30.9757 30.1223C31.0198 30.1665 31.1082 30.1665 31.1523 30.1665C31.2848 30.1665 31.4614 30.0781 31.5056 29.9455C33.9785 25.1702 38.0853 21.5446 43.1637 19.776C43.3845 19.6875 43.5169 19.4665 43.4286 19.2454C43.3403 19.0243 43.1195 18.8917 42.8987 18.9801C37.6438 20.8371 33.3603 24.5954 30.7991 29.5917C30.7107 29.7686 30.7549 29.9897 30.9757 30.1223ZM90.2817 19.157C90.2817 17.8305 90.1492 16.5041 89.8843 15.1776L89.8401 14.8239H88.7361L88.6478 15.1334C86.4398 22.7826 79.9042 28.4422 72.2205 29.7244C69.1735 22.871 63.0354 17.6979 55.6166 15.9735V13.8954C55.6166 13.6743 55.4841 13.5416 55.2633 13.4974C51.8189 12.8342 48.4186 12.8342 45.0625 13.4974C44.8859 13.5416 44.7092 13.7185 44.7092 13.8954V15.9735C37.2463 17.6979 31.1523 22.871 28.1053 29.7244C20.3774 28.4422 13.886 22.7826 11.6339 15.1334L11.5456 14.8239H10.4416L10.3974 15.1776C10.1325 16.5041 10 17.8305 10 19.157C10 29.0169 16.5797 37.462 26.0298 39.8939V60.2771C24.7934 60.4982 23.866 61.5593 23.866 62.8416V64.0354C23.866 65.406 24.9259 66.5114 26.2506 66.5999C26.339 67.9263 27.4871 68.9875 28.8119 68.9875C29.4743 68.9875 30.0483 68.7222 30.4899 68.3242C29.96 69.0317 29.6509 69.8718 29.6509 70.8003C29.6509 71.8615 30.0483 72.8784 30.7991 73.6301C31.5498 74.3817 32.5654 74.7797 33.6253 74.7797C34.4201 74.7797 35.1267 74.5586 35.7891 74.1606C35.7449 74.3375 35.7007 74.5144 35.7007 74.7354V75.9293C35.7007 77.2999 36.7606 78.4053 38.0853 78.4937C38.1737 79.776 39.1893 80.7929 40.4699 80.9256C40.6024 82.1636 41.5739 83.1363 42.8546 83.269C42.9429 84.5512 43.9585 85.524 45.2392 85.6566C45.3716 86.9831 46.4756 88 47.8004 88C48.9927 88 49.9642 87.2041 50.2733 86.143C50.3175 85.9219 50.3616 85.6566 50.3616 85.4355C50.3616 86.6293 51.3331 87.6021 52.5255 87.6021C53.7178 87.6021 54.6893 86.6293 54.6893 85.4355V84.1533C54.6893 83.0479 53.8502 82.1194 52.7462 82.031V83.5785C52.7462 83.7111 52.6579 83.7996 52.5255 83.7996C52.393 83.7996 52.3047 83.7111 52.3047 83.5785V62.0457L50.1408 59.8791L50.7149 59.3044L64.4485 73.0553C65.0225 73.6301 65.8174 73.9838 66.6564 73.9838C67.4955 73.9838 68.2903 73.6743 68.8644 73.0553C69.4385 72.4805 69.7918 71.6846 69.7918 70.8445C69.7918 70.0044 69.4826 69.2086 68.8644 68.6338C67.9371 67.7052 66.4798 67.4399 65.2875 68.0147L65.0225 68.1474L53.497 56.5188L54.071 55.944L65.1992 67.0862C65.8174 66.8209 66.4798 66.7767 67.1422 66.8651L55.1309 54.8386L55.7049 54.2638L59.3702 57.9337V54.4407C59.5026 54.3965 59.6351 54.3965 59.7676 54.3522V58.3758L61.7106 60.3213V53.689C61.8431 53.6448 61.9756 53.5564 62.108 53.5122V60.7192L63.9627 62.5763V52.5394C64.1835 52.4068 64.4043 52.2741 64.581 52.0973V63.1953L66.3473 64.9639V50.594C66.5681 50.3729 66.7889 50.1518 66.9656 49.8865V65.5387L68.5995 67.1747V47.2778C69.1294 46.084 69.4385 44.7576 69.4385 43.3869V67.2631C69.7918 68.0147 70.5425 68.5011 71.3815 68.5011C72.5738 68.5011 73.5453 67.5284 73.5453 66.3346V65.1408C73.5453 64.0796 72.7946 63.1953 71.7789 63.0184V65.1408C71.7789 65.3618 71.6023 65.5387 71.3815 65.5387C71.1607 65.5387 70.9841 65.3618 70.9841 65.1408V39.9381H71.8231V62.6647C73.0595 62.8858 73.9869 63.9469 73.9869 65.2292V66.2019C75.0909 66.1135 75.9299 65.185 75.9299 64.0354V62.8416C75.9299 61.7804 75.1792 60.8961 74.2077 60.7192V39.8939C83.7461 37.4178 90.2817 28.9727 90.2817 19.157ZM45.5483 14.2049C47.5796 13.8511 49.6551 13.7185 51.7306 13.8511V54.0427L48.6394 57.1378L45.5483 54.0427V14.2049ZM45.1508 54.8386L46.2548 55.944L35.1267 67.0862C34.5084 66.8209 33.846 66.7767 33.1837 66.8651L45.1508 54.8386ZM43.1637 53.8217C40.205 53.8217 37.1138 52.5394 34.8617 50.4171L37.3346 47.941C38.9244 49.4444 41.0882 50.3287 43.1637 50.3287H44.7092V53.8659H43.1637V53.8217ZM44.1352 54.6618L41.0882 57.7126V54.4849C41.7947 54.6175 42.4571 54.6618 43.1637 54.6618H44.1352V54.6618ZM40.2492 54.2638V58.5085L38.7036 60.056V53.7775C39.2335 53.9985 39.7192 54.1312 40.2492 54.2638ZM37.8645 53.4237V60.8961L36.2307 62.5321V52.5394C36.7606 52.8931 37.3346 53.1584 37.8645 53.4237ZM35.6124 52.0973V63.1511L33.846 64.8755V50.6382C34.4201 51.1688 34.9942 51.6551 35.6124 52.0973ZM43.1637 49.8865C41.1765 49.8865 39.0127 48.958 37.4671 47.4989L37.3346 47.3663L34.5084 50.1076C34.2876 49.8865 34.0668 49.6212 33.846 49.4002L37.3788 45.8629C38.5711 47.5873 40.8674 48.8696 43.1637 48.8696H44.7092V49.8423H43.1637V49.8865ZM31.1965 39.098H26.8689C26.8689 38.5674 26.913 38.0811 26.9572 37.5505H44.7092V39.098H31.1965ZM31.3731 66.423V65.2292V65.185V46.8357C31.8147 47.9853 32.4329 49.0022 33.2278 49.9307V65.5387L31.3731 67.3957V66.423ZM44.7092 16.8136V36.7104H27.0455C28.1937 26.9831 35.3475 19.0685 44.7092 16.8136ZM11.8105 17.9632C14.4601 23.9764 19.7592 28.4864 26.074 30.1223C25.5441 31.4488 25.1025 32.7752 24.7934 34.1459C17.9928 31.4488 13.0028 25.3471 11.8105 17.9632ZM25.1467 34.3228C25.4558 32.9521 25.8974 31.5814 26.4714 30.255C26.913 30.3434 27.3105 30.4318 27.7521 30.5203C27.2221 31.8467 26.7806 33.3058 26.4714 34.7649C26.0298 34.6323 25.5882 34.4554 25.1467 34.3228ZM26.2065 65.185V66.1577C25.1025 66.0693 24.2635 65.1408 24.2635 63.9912V62.7973C24.2635 61.7362 25.0142 60.8519 25.9857 60.675V62.2226C25.9857 62.4436 26.1623 62.6205 26.3831 62.6205C26.6039 62.6205 26.7806 62.4436 26.7806 62.2226V39.9381H28.5469V62.6647C27.2663 62.7531 26.2065 63.8585 26.2065 65.185ZM28.8119 68.5895C27.6196 68.5895 26.6481 67.6168 26.6481 66.423V65.2292C26.6481 64.1238 27.4871 63.1953 28.5911 63.1069V65.2292C28.5911 65.3618 28.6794 65.4503 28.8119 65.4503C28.9444 65.4503 29.0327 65.3618 29.0327 65.2292V39.9381H30.7549V43.4311C30.7549 44.0943 30.8432 44.7576 30.9757 45.3766V66.3788C30.9757 67.6168 30.0042 68.5895 28.8119 68.5895ZM35.8332 73.0111C35.2591 73.5859 34.4643 73.9396 33.6253 73.9396C32.7862 73.9396 31.9914 73.6301 31.4173 73.0111C30.8432 72.4363 30.4899 71.6404 30.4899 70.8003C30.4899 69.9602 30.7991 69.1643 31.4173 68.5895C32.3446 67.661 33.8019 67.3957 34.9942 67.9705L35.2591 68.1032L46.8289 56.5188L48.0654 57.7568L34.3318 71.5077C33.9344 71.9057 33.3161 71.9057 32.9629 71.5077C32.5654 71.1098 32.5654 70.4908 32.9629 70.1371C33.1395 69.9602 33.4045 69.8718 33.6694 69.8718C33.9344 69.8718 34.1552 69.9602 34.376 70.1371C34.4643 70.2255 34.5968 70.2255 34.6851 70.1371C34.7734 70.0486 34.7734 69.916 34.6851 69.8276C34.4201 69.5623 34.0668 69.4296 33.7136 69.4296C33.3603 69.4296 33.007 69.5623 32.7421 69.8276C32.2122 70.3581 32.2122 71.2425 32.7421 71.8172C33.007 72.0825 33.3603 72.2152 33.7136 72.2152C34.0668 72.2152 34.4201 72.0825 34.7292 71.773L48.4186 58.0663L49.6551 59.3044L36.0099 72.9668L35.8332 73.0111ZM38.0853 77.1231V78.0516C36.9814 77.9632 36.1423 77.0346 36.1423 75.9293V74.7354C36.1423 73.6743 36.893 72.79 37.8645 72.6131V74.1606C37.8645 74.3817 38.0412 74.5586 38.262 74.5586C38.4828 74.5586 38.6594 74.3817 38.6594 74.1606V71.3309L40.205 69.7833V74.5586C39.0127 74.7797 38.0853 75.8408 38.0853 77.1231ZM40.4699 79.4665V80.4834C39.366 80.395 38.5269 79.4665 38.5269 78.3169V77.1231C38.5269 76.0619 39.2776 75.1776 40.2492 75.0007V76.5483C40.2492 76.7693 40.4258 76.9462 40.6466 76.9462C40.8674 76.9462 41.044 76.7693 41.044 76.5483V68.9875L42.5896 67.4399V76.902C41.3973 77.1231 40.4699 78.1842 40.4699 79.4665ZM42.8546 81.8099V82.7826C41.7506 82.6942 40.9115 81.7657 40.9115 80.6603V79.4665C40.9115 78.4053 41.6623 77.521 42.6338 77.3441V78.8917C42.6338 79.1128 42.8104 79.2896 43.0312 79.2896C43.252 79.2896 43.4286 79.1128 43.4286 78.8917V66.5999L44.9742 65.0523V79.2896C43.7819 79.4665 42.8546 80.5719 42.8546 81.8099ZM45.195 84.1533V85.1702C44.091 85.0818 43.252 84.1533 43.252 83.0479V81.8541C43.252 80.7929 44.0027 79.9086 44.9742 79.7318V81.2793C44.9742 81.5004 45.1508 81.6772 45.3716 81.6772C45.5924 81.6772 45.7691 81.5004 45.7691 81.2793V64.2565L47.3146 62.7089V81.633C46.1223 81.8099 45.195 82.871 45.195 84.1533ZM47.8004 87.5136C46.6081 87.5136 45.6366 86.5409 45.6366 85.3471V84.1533C45.6366 83.0921 46.3873 82.2078 47.3588 82.031V83.5785C47.3588 83.7996 47.5354 83.9764 47.7562 83.9764C47.977 83.9764 48.1537 83.7996 48.1537 83.5785V61.8688L49.9201 60.1444V85.3913C49.9642 86.5409 48.9927 87.5136 47.8004 87.5136ZM65.9941 71.4635C65.9941 71.4635 65.9941 71.5077 65.9941 71.4635C66.3915 71.8615 67.0097 71.8615 67.4072 71.4635C67.8046 71.0656 67.8046 70.4466 67.4072 70.0929C67.0097 69.6949 66.3915 69.6949 66.0382 70.0929C65.9499 70.1813 65.8174 70.1813 65.7291 70.0929C65.6408 70.0044 65.6408 69.8718 65.7291 69.7833C66.259 69.2528 67.1422 69.2528 67.7163 69.7833C68.2462 70.3139 68.2462 71.1982 67.7163 71.773C67.4513 72.0383 67.098 72.171 66.7448 72.171C66.3915 72.171 66.0382 72.0383 65.7733 71.773L65.7291 71.7288L52.0397 58.0221L52.3488 57.7126L65.9941 71.4635ZM50.1408 58.6853L48.9044 57.4473L51.9072 54.4407H54.336L50.1408 58.6853ZM54.7776 54.0427H52.1722V13.8954C53.0554 13.9838 53.9386 14.0722 54.7776 14.2491V54.0427ZM88.4712 17.9632C87.2789 25.3471 82.2447 31.4488 75.4883 34.1459C75.1792 32.7752 74.7376 31.4488 74.2077 30.1223C80.5225 28.4864 85.8216 24.0206 88.4712 17.9632ZM57.2505 17.2999C65.7733 20.0413 72.1764 27.5578 73.2803 36.7104H57.2505V17.2999ZM57.2505 53.8217V50.2845C59.2818 50.2402 61.4015 49.3559 62.9471 47.8968L65.4641 50.4171C63.2562 52.4952 60.165 53.7775 57.2505 53.8217ZM65.7733 50.1076L62.9912 47.322L62.8587 47.4547C61.3573 48.9138 59.2377 49.7981 57.2947 49.8423V48.8696C59.5026 48.8254 61.7548 47.5431 62.9471 45.8629L66.4798 49.4002C66.2148 49.6654 65.9941 49.8865 65.7733 50.1076ZM69.5268 39.098H57.2505V37.5505H73.3687C73.4128 38.0811 73.457 38.5674 73.457 39.098H69.5268ZM73.8103 34.7649C73.5011 33.3058 73.1037 31.8909 72.5296 30.5203C72.9712 30.4318 73.3687 30.3434 73.8103 30.255C74.3402 31.5814 74.8259 32.9521 75.135 34.3228C74.6934 34.4554 74.2518 34.6323 73.8103 34.7649ZM29.386 34.4996C29.4301 34.4996 29.4743 34.4996 29.4743 34.4996C29.6509 34.4996 29.8275 34.367 29.8717 34.1901C30.0925 33.35 30.4016 32.4657 30.7107 31.6256C30.7991 31.4046 30.7107 31.1835 30.4899 31.0951C30.2691 31.0066 30.0483 31.0951 29.96 31.3161C29.6068 32.1562 29.2976 33.0847 29.0768 33.969C29.0327 34.1901 29.1652 34.4112 29.386 34.4996Z" fill="#2E2F36"/>
</svg>
