<svg width="303" height="77" viewBox="0 0 303 77" fill="none" xmlns="http://www.w3.org/2000/svg">
<path d="M52.2405 59.5689V61.1164C52.2405 61.2491 52.1522 61.3375 52.0197 61.3375C51.8872 61.3375 51.7989 61.2491 51.7989 61.1164V58.552L49.8559 56.6065V61.5586C51.1807 61.647 52.2405 62.7966 52.2405 64.1231V65.0516C53.3445 64.9632 54.1835 64.0346 54.1835 62.9293V61.7354C54.1835 60.5859 53.3003 59.6573 52.2405 59.5689ZM45.0867 66.6875V68.2351C45.0867 68.3677 44.9984 68.4562 44.8659 68.4562C44.7334 68.4562 44.6451 68.3677 44.6451 68.2351V51.4333L42.7021 49.4878V68.5888C44.0269 68.6772 45.0867 69.8268 45.0867 71.1533V72.1702C46.1907 72.0818 47.0297 71.1533 47.0297 70.0037V68.8099C47.0739 67.7045 46.1907 66.776 45.0867 66.6875ZM47.4713 64.2999V65.8475C47.4713 65.9801 47.383 66.0685 47.2505 66.0685C47.118 66.0685 47.0297 65.9801 47.0297 65.8475V53.7767L45.0867 51.8312V66.2454C46.4115 66.3338 47.4713 67.4834 47.4713 68.8099V69.7826C48.5753 69.6942 49.4143 68.7657 49.4143 67.6603V66.4665C49.4143 65.3169 48.5753 64.4326 47.4713 64.2999ZM49.8559 62.0007V63.5483C49.8559 63.6809 49.7676 63.7693 49.6351 63.7693C49.5026 63.7693 49.4143 63.6809 49.4143 63.5483V56.1643L47.4713 54.2189V63.902C48.7961 63.9904 49.8559 65.14 49.8559 66.4665V67.4834C50.9599 67.395 51.7989 66.4665 51.7989 65.3611V64.1673C51.7989 63.0177 50.9599 62.0892 49.8559 62.0007ZM20.9757 17.1223C21.0198 17.1665 21.1082 17.1665 21.1523 17.1665C21.2848 17.1665 21.4614 17.0781 21.5056 16.9455C23.9785 12.1702 28.0853 8.54458 33.1637 6.77598C33.3845 6.68755 33.5169 6.46647 33.4286 6.24539C33.3403 6.02432 33.1195 5.89167 32.8987 5.9801C27.6438 7.83714 23.3603 11.5954 20.7991 16.5917C20.7107 16.7686 20.7549 16.9897 20.9757 17.1223ZM80.2817 6.15696C80.2817 4.83051 80.1492 3.50405 79.8843 2.1776L79.8401 1.82388H78.7361L78.6478 2.13338C76.4398 9.78261 69.9042 15.4422 62.2205 16.7244C59.1735 9.87104 53.0354 4.69786 45.6166 2.97347V0.895357C45.6166 0.674281 45.4841 0.541636 45.2633 0.497421C41.8189 -0.165807 38.4186 -0.165807 35.0625 0.497421C34.8859 0.541636 34.7092 0.718497 34.7092 0.895357V2.97347C27.2463 4.69786 21.1523 9.87104 18.1053 16.7244C10.3774 15.4422 3.88602 9.78261 1.6339 2.13338L1.54558 1.82388H0.441593L0.397434 2.1776C0.132478 3.50405 0 4.83051 0 6.15696C0 16.0169 6.57974 24.462 16.0298 26.8939V47.2771C14.7934 47.4982 13.866 48.5593 13.866 49.8416V51.0354C13.866 52.406 14.9259 53.5114 16.2506 53.5999C16.339 54.9263 17.4871 55.9875 18.8119 55.9875C19.4743 55.9875 20.0483 55.7222 20.4899 55.3242C19.96 56.0317 19.6509 56.8718 19.6509 57.8003C19.6509 58.8615 20.0483 59.8784 20.7991 60.6301C21.5498 61.3817 22.5654 61.7797 23.6252 61.7797C24.4201 61.7797 25.1267 61.5586 25.7891 61.1606C25.7449 61.3375 25.7007 61.5144 25.7007 61.7354V62.9293C25.7007 64.2999 26.7606 65.4053 28.0853 65.4937C28.1737 66.776 29.1893 67.7929 30.4699 67.9256C30.6024 69.1636 31.5739 70.1363 32.8546 70.269C32.9429 71.5512 33.9585 72.5239 35.2392 72.6566C35.3716 73.983 36.4756 75 37.8004 75C38.9927 75 39.9642 74.2041 40.2733 73.143C40.3175 72.9219 40.3616 72.6566 40.3616 72.4355C40.3616 73.6293 41.3331 74.6021 42.5255 74.6021C43.7178 74.6021 44.6893 73.6293 44.6893 72.4355V71.1533C44.6893 70.0479 43.8502 69.1194 42.7463 69.031V70.5785C42.7463 70.7111 42.6579 70.7996 42.5255 70.7996C42.393 70.7996 42.3047 70.7111 42.3047 70.5785V49.0457L40.1408 46.8791L40.7149 46.3044L54.4485 60.0553C55.0225 60.6301 55.8174 60.9838 56.6564 60.9838C57.4955 60.9838 58.2903 60.6743 58.8644 60.0553C59.4385 59.4805 59.7918 58.6846 59.7918 57.8445C59.7918 57.0044 59.4826 56.2086 58.8644 55.6338C57.9371 54.7052 56.4798 54.4399 55.2875 55.0147L55.0225 55.1474L43.497 43.5188L44.071 42.944L55.1992 54.0862C55.8174 53.8209 56.4798 53.7767 57.1422 53.8651L45.1309 41.8386L45.7049 41.2638L49.3702 44.9337V41.4407C49.5026 41.3965 49.6351 41.3965 49.7676 41.3522V45.3758L51.7106 47.3213V40.689C51.8431 40.6448 51.9756 40.5564 52.108 40.5122V47.7192L53.9627 49.5763V39.5394C54.1835 39.4068 54.4043 39.2741 54.581 39.0973V50.1953L56.3473 51.9639V37.594C56.5681 37.3729 56.7889 37.1518 56.9656 36.8865V52.5387L58.5995 54.1747V34.2778C59.1294 33.084 59.4385 31.7576 59.4385 30.3869V54.2631C59.7918 55.0147 60.5425 55.5011 61.3815 55.5011C62.5738 55.5011 63.5453 54.5284 63.5453 53.3346V52.1408C63.5453 51.0796 62.7946 50.1953 61.7789 50.0184V52.1408C61.7789 52.3618 61.6023 52.5387 61.3815 52.5387C61.1607 52.5387 60.9841 52.3618 60.9841 52.1408V26.9381H61.8231V49.6647C63.0595 49.8858 63.9869 50.9469 63.9869 52.2292V53.2019C65.0909 53.1135 65.9299 52.185 65.9299 51.0354V49.8416C65.9299 48.7804 65.1792 47.8961 64.2077 47.7192V26.8939C73.7461 24.4178 80.2817 15.9727 80.2817 6.15696ZM35.5483 1.20486C37.5796 0.851142 39.6551 0.718497 41.7306 0.851142V41.0427L38.6394 44.1378L35.5483 41.0427V1.20486ZM35.1508 41.8386L36.2548 42.944L25.1267 54.0862C24.5084 53.8209 23.846 53.7767 23.1837 53.8651L35.1508 41.8386ZM33.1637 40.8217C30.205 40.8217 27.1138 39.5394 24.8617 37.4171L27.3346 34.941C28.9244 36.4444 31.0882 37.3287 33.1637 37.3287H34.7092V40.8659H33.1637V40.8217ZM34.1352 41.6618L31.0882 44.7126V41.4849C31.7947 41.6175 32.4571 41.6618 33.1637 41.6618H34.1352ZM30.2492 41.2638V45.5085L28.7036 47.056V40.7775C29.2335 40.9985 29.7192 41.1312 30.2492 41.2638ZM27.8645 40.4237V47.8961L26.2307 49.5321V39.5394C26.7606 39.8932 27.3346 40.1584 27.8645 40.4237ZM25.6124 39.0973V50.1511L23.846 51.8755V37.6382C24.4201 38.1688 24.9942 38.6551 25.6124 39.0973ZM33.1637 36.8865C31.1765 36.8865 29.0127 35.958 27.4671 34.4989L27.3346 34.3663L24.5084 37.1076C24.2876 36.8865 24.0668 36.6212 23.846 36.4002L27.3788 32.8629C28.5711 34.5873 30.8674 35.8696 33.1637 35.8696H34.7092V36.8423H33.1637V36.8865ZM21.1965 26.098H16.8689C16.8689 25.5674 16.913 25.0811 16.9572 24.5505H34.7092V26.098H21.1965ZM21.3731 53.423V52.2292V52.185V33.8357C21.8147 34.9853 22.4329 36.0022 23.2278 36.9307V52.5387L21.3731 54.3957V53.423ZM34.7092 3.81356V23.7104H17.0455C18.1936 13.9831 25.3475 6.06853 34.7092 3.81356ZM1.81053 4.96315C4.46009 10.9764 9.75922 15.4864 16.074 17.1223C15.5441 18.4488 15.1025 19.7752 14.7934 21.1459C7.99284 18.4488 3.00284 12.3471 1.81053 4.96315ZM15.1467 21.3228C15.4558 19.9521 15.8974 18.5814 16.4714 17.255C16.913 17.3434 17.3105 17.4318 17.7521 17.5203C17.2221 18.8467 16.7806 20.3058 16.4714 21.7649C16.0298 21.6323 15.5882 21.4554 15.1467 21.3228ZM16.2065 52.185V53.1577C15.1025 53.0693 14.2635 52.1408 14.2635 50.9912V49.7973C14.2635 48.7362 15.0142 47.8519 15.9857 47.675V49.2226C15.9857 49.4436 16.1623 49.6205 16.3831 49.6205C16.6039 49.6205 16.7806 49.4436 16.7806 49.2226V26.9381H18.5469V49.6647C17.2663 49.7531 16.2065 50.8585 16.2065 52.185ZM18.8119 55.5895C17.6196 55.5895 16.6481 54.6168 16.6481 53.423V52.2292C16.6481 51.1238 17.4871 50.1953 18.5911 50.1069V52.2292C18.5911 52.3618 18.6794 52.4503 18.8119 52.4503C18.9444 52.4503 19.0327 52.3618 19.0327 52.2292V26.9381H20.7549V30.4311C20.7549 31.0943 20.8432 31.7576 20.9757 32.3766V53.3788C20.9757 54.6168 20.0042 55.5895 18.8119 55.5895ZM25.8332 60.0111C25.2591 60.5859 24.4643 60.9396 23.6252 60.9396C22.7862 60.9396 21.9914 60.6301 21.4173 60.0111C20.8432 59.4363 20.4899 58.6404 20.4899 57.8003C20.4899 56.9602 20.7991 56.1643 21.4173 55.5895C22.3446 54.661 23.8019 54.3957 24.9942 54.9705L25.2591 55.1032L36.8289 43.5188L38.0654 44.7568L24.3318 58.5077C23.9344 58.9057 23.3161 58.9057 22.9629 58.5077C22.5654 58.1098 22.5654 57.4908 22.9629 57.1371C23.1395 56.9602 23.4045 56.8718 23.6694 56.8718C23.9344 56.8718 24.1552 56.9602 24.376 57.1371C24.4643 57.2255 24.5968 57.2255 24.6851 57.1371C24.7734 57.0486 24.7734 56.916 24.6851 56.8276C24.4201 56.5623 24.0668 56.4296 23.7136 56.4296C23.3603 56.4296 23.007 56.5623 22.7421 56.8276C22.2122 57.3581 22.2122 58.2425 22.7421 58.8172C23.007 59.0825 23.3603 59.2152 23.7136 59.2152C24.0668 59.2152 24.4201 59.0825 24.7292 58.773L38.4186 45.0663L39.6551 46.3044L26.0099 59.9668L25.8332 60.0111ZM28.0853 64.1231V65.0516C26.9814 64.9632 26.1423 64.0346 26.1423 62.9293V61.7354C26.1423 60.6743 26.893 59.79 27.8645 59.6131V61.1606C27.8645 61.3817 28.0412 61.5586 28.262 61.5586C28.4828 61.5586 28.6594 61.3817 28.6594 61.1606V58.3309L30.205 56.7833V61.5586C29.0127 61.7797 28.0853 62.8408 28.0853 64.1231ZM30.4699 66.4665V67.4834C29.366 67.395 28.5269 66.4665 28.5269 65.3169V64.1231C28.5269 63.0619 29.2776 62.1776 30.2492 62.0007V63.5483C30.2492 63.7693 30.4258 63.9462 30.6466 63.9462C30.8674 63.9462 31.044 63.7693 31.044 63.5483V55.9875L32.5896 54.4399V63.902C31.3973 64.1231 30.4699 65.1842 30.4699 66.4665ZM32.8546 68.8099V69.7826C31.7506 69.6942 30.9115 68.7657 30.9115 67.6603V66.4665C30.9115 65.4053 31.6623 64.521 32.6338 64.3441V65.8917C32.6338 66.1128 32.8104 66.2896 33.0312 66.2896C33.252 66.2896 33.4286 66.1128 33.4286 65.8917V53.5999L34.9742 52.0523V66.2896C33.7819 66.4665 32.8546 67.5719 32.8546 68.8099ZM35.195 71.1533V72.1702C34.091 72.0818 33.252 71.1533 33.252 70.0479V68.8541C33.252 67.7929 34.0027 66.9086 34.9742 66.7318V68.2793C34.9742 68.5004 35.1508 68.6772 35.3716 68.6772C35.5924 68.6772 35.7691 68.5004 35.7691 68.2793V51.2565L37.3146 49.7089V68.633C36.1223 68.8099 35.195 69.871 35.195 71.1533ZM37.8004 74.5136C36.6081 74.5136 35.6366 73.5409 35.6366 72.3471V71.1533C35.6366 70.0921 36.3873 69.2078 37.3588 69.031V70.5785C37.3588 70.7996 37.5354 70.9764 37.7562 70.9764C37.977 70.9764 38.1537 70.7996 38.1537 70.5785V48.8688L39.9201 47.1444V72.3913C39.9642 73.5409 38.9927 74.5136 37.8004 74.5136ZM55.9941 58.4635C55.9941 58.4635 55.9941 58.5077 55.9941 58.4635C56.3915 58.8615 57.0097 58.8615 57.4072 58.4635C57.8046 58.0656 57.8046 57.4466 57.4072 57.0929C57.0097 56.6949 56.3915 56.6949 56.0382 57.0929C55.9499 57.1813 55.8174 57.1813 55.7291 57.0929C55.6408 57.0044 55.6408 56.8718 55.7291 56.7833C56.259 56.2528 57.1422 56.2528 57.7163 56.7833C58.2462 57.3139 58.2462 58.1982 57.7163 58.773C57.4513 59.0383 57.098 59.171 56.7448 59.171C56.3915 59.171 56.0382 59.0383 55.7733 58.773L55.7291 58.7288L42.0397 45.0221L42.3488 44.7126L55.9941 58.4635ZM40.1408 45.6853L38.9044 44.4473L41.9072 41.4407H44.336L40.1408 45.6853ZM44.7776 41.0427H42.1722V0.895357C43.0554 0.983788 43.9385 1.07222 44.7776 1.24908V41.0427ZM78.4712 4.96315C77.2789 12.3471 72.2447 18.4488 65.4883 21.1459C65.1792 19.7752 64.7376 18.4488 64.2077 17.1223C70.5225 15.4864 75.8216 11.0206 78.4712 4.96315ZM47.2505 4.29993C55.7733 7.04127 62.1764 14.5578 63.2803 23.7104H47.2505V4.29993ZM47.2505 40.8217V37.2845C49.2818 37.2402 51.4015 36.3559 52.9471 34.8968L55.4641 37.4171C53.2562 39.4952 50.165 40.7775 47.2505 40.8217ZM55.7733 37.1076L52.9912 34.322L52.8587 34.4547C51.3573 35.9138 49.2377 36.7981 47.2947 36.8423V35.8696C49.5026 35.8254 51.7548 34.5431 52.9471 32.8629L56.4798 36.4002C56.2148 36.6654 55.9941 36.8865 55.7733 37.1076ZM59.5268 26.098H47.2505V24.5505H63.3687C63.4128 25.0811 63.457 25.5674 63.457 26.098H59.5268ZM63.8103 21.7649C63.5011 20.3058 63.1037 18.8909 62.5296 17.5203C62.9712 17.4318 63.3687 17.3434 63.8103 17.255C64.3402 18.5814 64.8259 19.9521 65.135 21.3228C64.6934 21.4554 64.2518 21.6323 63.8103 21.7649ZM19.386 21.4996C19.4301 21.4996 19.4743 21.4996 19.4743 21.4996C19.6509 21.4996 19.8275 21.367 19.8717 21.1901C20.0925 20.35 20.4016 19.4657 20.7107 18.6256C20.7991 18.4046 20.7107 18.1835 20.4899 18.0951C20.2691 18.0066 20.0483 18.0951 19.96 18.3161C19.6068 19.1562 19.2976 20.0847 19.0768 20.969C19.0327 21.1901 19.1652 21.4112 19.386 21.4996Z" fill="#2E2F36"/>
<path d="M121.496 42.736H111.808V27.42H108V46.18H121.496V42.736Z" fill="#2E2F36"/>
<path d="M140.453 27.42H136.645V37.78C136.645 39.348 136.253 40.608 135.469 41.56C134.685 42.512 133.649 42.96 132.389 42.96C131.045 42.96 129.953 42.512 129.141 41.56C128.329 40.608 127.937 39.348 127.937 37.78V27.42H124.129V37.78C124.129 40.412 124.885 42.54 126.397 44.164C127.909 45.788 129.897 46.6 132.389 46.6C134.797 46.6 136.757 45.788 138.241 44.164C139.697 42.54 140.453 40.412 140.453 37.78V27.42Z" fill="#2E2F36"/>
<path d="M153.219 43.044C151.539 43.044 150.111 42.456 148.935 41.252C147.759 40.076 147.199 38.592 147.199 36.8C147.199 35.036 147.759 33.552 148.935 32.376C150.083 31.2 151.511 30.584 153.219 30.584C154.563 30.584 155.739 30.976 156.747 31.76C157.755 32.544 158.427 33.72 158.763 35.26L162.459 34.224C161.983 32.012 160.891 30.248 159.211 28.96C157.503 27.672 155.515 27 153.219 27C150.447 27 148.123 27.952 146.219 29.856C144.315 31.76 143.363 34.056 143.363 36.8C143.363 39.572 144.315 41.896 146.219 43.772C148.123 45.676 150.447 46.6 153.219 46.6C155.515 46.6 157.531 45.956 159.239 44.612C160.919 43.296 162.011 41.448 162.459 39.096L158.763 38.34C158.427 39.908 157.755 41.084 156.775 41.868C155.767 42.652 154.591 43.044 153.219 43.044Z" fill="#2E2F36"/>
<path d="M182.555 46.18L173.343 36.828L181.967 27.42H177.263L169.983 35.232H169.339V27.42H165.531V46.18H169.339V38.676H170.291L177.431 46.18H182.555Z" fill="#2E2F36"/>
<path d="M193.7 40.188L201.26 27.42H196.892L191.796 36.268L186.672 27.42H182.472L189.892 40.244V46.18H193.7V40.188Z" fill="#2E2F36"/>
<path d="M222.36 36.492C223.032 36.38 223.648 35.988 224.236 35.288C224.796 34.616 225.104 33.72 225.104 32.628C225.104 31.06 224.6 29.8 223.592 28.848C222.584 27.896 221.24 27.42 219.56 27.42H210.32V46.18H219.588C221.604 46.18 223.116 45.732 224.124 44.78C225.132 43.828 225.636 42.568 225.636 40.972C225.636 39.74 225.3 38.732 224.628 37.948C223.956 37.164 223.2 36.716 222.36 36.604V36.492ZM214.128 30.668H219.14C219.756 30.668 220.288 30.892 220.736 31.284C221.184 31.704 221.408 32.236 221.408 32.852C221.408 33.58 221.156 34.168 220.708 34.616C220.26 35.064 219.644 35.26 218.888 35.26H214.128V30.668ZM214.128 42.932V38.284H219.308C220.036 38.284 220.624 38.508 221.072 38.928C221.52 39.348 221.744 39.908 221.744 40.608C221.744 41.336 221.52 41.896 221.072 42.316C220.624 42.736 220.008 42.932 219.168 42.932H214.128Z" fill="#2E2F36"/>
<path d="M243.029 42.736H232.585V38.48H242.161V35.092H232.585V30.864H242.973V27.42H228.777V46.18H243.029V42.736Z" fill="#2E2F36"/>
<path d="M264.359 46.18L256.239 27.42H252.683L244.563 46.18H248.679L250.331 42.176H258.619L260.243 46.18H264.359ZM257.191 38.732H251.731L254.475 32.04L257.191 38.732Z" fill="#2E2F36"/>
<path d="M282.952 46.18L276.652 39.208C278.276 38.984 279.592 38.34 280.572 37.276C281.524 36.24 282.028 34.924 282.028 33.356C282.028 31.592 281.412 30.164 280.18 29.072C278.948 27.98 277.324 27.42 275.308 27.42H266.32V46.18H270.128V39.292H272.116L278.304 46.18H282.952ZM270.128 35.848V30.864H275.308C276.176 30.864 276.876 31.116 277.436 31.564C277.968 32.012 278.248 32.628 278.248 33.356C278.248 34.112 277.968 34.728 277.436 35.176C276.876 35.624 276.176 35.848 275.308 35.848H270.128Z" fill="#2E2F36"/>
<path d="M285.188 27.42V46.18H292.104C295.184 46.18 297.675 45.34 299.579 43.604C301.455 41.868 302.408 39.6 302.408 36.8C302.408 34 301.455 31.76 299.579 30.024C297.675 28.288 295.184 27.42 292.104 27.42H285.188ZM288.995 42.736V30.864H292.104C294.064 30.864 295.632 31.424 296.807 32.488C297.983 33.552 298.571 35.008 298.571 36.8C298.571 38.62 297.983 40.076 296.807 41.14C295.632 42.204 294.064 42.736 292.104 42.736H288.995Z" fill="#2E2F36"/>
</svg>
